
<?xml version="1.0" encoding="UTF-8"?>
<svg width="1024" height="1024" viewBox="0 0 1024 1024" fill="none" xmlns="http://www.w3.org/2000/svg">
  <defs>
    <linearGradient id="shieldGradient" x1="0" y1="0" x2="0" y2="1">
      <stop offset="0%" stop-color="#6EDC6A"/>
      <stop offset="100%" stop-color="#1E9E5A"/>
    </linearGradient>
    <linearGradient id="safeRoute" x1="0" y1="0" x2="1" y2="0">
      <stop offset="0%" stop-color="#2ECC71"/>
      <stop offset="100%" stop-color="#27AE60"/>
    </linearGradient>
    <linearGradient id="riskRoute" x1="0" y1="0" x2="1" y2="0">
      <stop offset="0%" stop-color="#F39C12"/>
      <stop offset="100%" stop-color="#E74C3C"/>
    </linearGradient>
  </defs>

  <!-- Shield -->
  <path d="M512 80C350 140 220 160 220 160v300c0 210 292 400 292 400s292-190 292-400V160s-130-20-292-80z"
        fill="url(#shieldGradient)"/>

  <!-- Map background -->
  <path d="M330 260h360v360H330z" fill="#FFFFFF" opacity="0.85" rx="40"/>

  <!-- Safe route -->
  <path d="M380 560c80-120 140-120 220-40" stroke="url(#safeRoute)" stroke-width="28" stroke-linecap="round" fill="none" stroke-dasharray="10 12"/>

  <!-- Risk route -->
  <path d="M560 520c60 40 80 80 120 140" stroke="url(#riskRoute)" stroke-width="28" stroke-linecap="round" fill="none" stroke-dasharray="10 12"/>

  <!-- Safe pin -->
  <g transform="translate(360 420)">
    <path d="M64 0C28.7 0 0 28.7 0 64c0 48 64 112 64 112s64-64 64-112C128 28.7 99.3 0 64 0z" fill="#2ECC71"/>
    <path d="M38 64l18 18 34-34" stroke="#FFFFFF" stroke-width="10" stroke-linecap="round" stroke-linejoin="round" fill="none"/>
  </g>

  <!-- Risk pin -->
  <g transform="translate(600 420)">
    <path d="M64 0C28.7 0 0 28.7 0 64c0 48 64 112 64 112s64-64 64-112C128 28.7 99.3 0 64 0z" fill="#E74C3C"/>
    <line x1="64" y1="32" x2="64" y2="80" stroke="#FFFFFF" stroke-width="10" stroke-linecap="round"/>
    <circle cx="64" cy="100" r="6" fill="#FFFFFF"/>
  </g>
</svg>
